<svg xmlns="http://www.w3.org/2000/svg" version="1.1" xmlns:xlink="http://www.w3.org/1999/xlink" width="608.15" height="279.82"><svg id="SvgjsSvg1022" data-name="Layer 1" xmlns="http://www.w3.org/2000/svg" viewBox="0 0 608.15 279.82"><defs><style>.cls-1{stroke:#000;stroke-miterlimit:10;}</style></defs><path d="M538.77,624.48V467.08a72,72,0,0,1,71.46-72V624.48Z" transform="translate(-235.59 -394.57)"></path><path d="M609.73,395.63V624H539.27V467.08a71.54,71.54,0,0,1,70.46-71.45m1-1h0a72.46,72.46,0,0,0-72.46,72.46V625h72.46V394.62Z" transform="translate(-235.59 -394.57)"></path><path d="M452.78,466.53a72,72,0,0,1-72-71.46H610.18v71.46Z" transform="translate(-235.59 -394.57)"></path><path d="M381.33,395.57H609.68V466H452.78a71.54,71.54,0,0,1-71.45-70.46m-1-1h0A72.46,72.46,0,0,0,452.78,467h157.9V394.57Z" transform="translate(-235.59 -394.57)"></path><path d="M688.23,624.47a72,72,0,0,1-71.46-72V395.12H633a55.29,55.29,0,0,1,55.23,55.23Z" transform="translate(-235.59 -394.57)"></path><path d="M633,395.62a54.79,54.79,0,0,1,54.73,54.73V624a71.55,71.55,0,0,1-70.46-71.46V395.62H633m0-1H616.27V552.51A72.47,72.47,0,0,0,688.73,625h0V450.35A55.73,55.73,0,0,0,633,394.62Z" transform="translate(-235.59 -394.57)"></path><path d="M693.77,457a62,62,0,0,1,61.9-61.9h9.56V552.51a72,72,0,0,1-71.46,72Z" transform="translate(-235.59 -394.57)"></path><path d="M764.73,395.62V552.51A71.55,71.55,0,0,1,694.27,624V457a61.46,61.46,0,0,1,61.4-61.4h9.06m1-1H755.67a62.4,62.4,0,0,0-62.4,62.4V625h0a72.47,72.47,0,0,0,72.46-72.47V394.62Z" transform="translate(-235.59 -394.57)"></path><path d="M771.77,624.48V395.12h2.74a68.8,68.8,0,0,1,68.72,68.72V624.48Z" transform="translate(-235.59 -394.57)"></path><path d="M774.51,395.62a68.29,68.29,0,0,1,68.22,68.22V624H772.27V395.62h2.24m0-1h-3.24V625h72.46V463.84a69.22,69.22,0,0,0-69.22-69.22Z" transform="translate(-235.59 -394.57)"></path><path d="M236.73,466.54a108.89,108.89,0,0,1,7.41-35.44c9.7-23.74,26.78-35.78,50.78-35.78H466.47a58.41,58.41,0,0,1,28.17,9c12.78,8.13,28,25.53,28.13,62.24Z" transform="translate(-235.59 -394.57)"></path><path d="M466.47,395.82h0a58,58,0,0,1,27.94,8.92,54.69,54.69,0,0,1,19.13,21.07c5.67,10.85,8.61,24.38,8.73,40.23h-285a109,109,0,0,1,7.37-34.78c4.22-10.31,10-18.52,17.15-24.4,8.93-7.32,20.08-11,33.16-11H466.47m0-1H294.92c-58.42,0-58.7,72.22-58.7,72.22h287c0-72.22-56.8-72.22-56.8-72.22Z" transform="translate(-235.59 -394.57)"></path><path class="cls-1" d="M236.19,552.35H523.27c-.89-2-.89,72.44-57.54,72.44H292C235.59,624.79,235.59,552.57,236.19,552.35Z" transform="translate(-235.59 -394.57)"></path><path class="cls-1" d="M238.41,472.29l226,.36s55.78-2.43,56.65,72.1h-225S239.56,544.87,238.41,472.29Z" transform="translate(-235.59 -394.57)"></path><path d="M376.68,666.68c0,1,1,1.71,5.91,1.71,4.62,0,5.31-.3,5.31-1.08s-.69-1-5.61-1.17c-9.48-.3-13.11-1.86-13.11-6.75,0-4.62,4.53-6.6,12.81-6.6s12.81,2,12.81,7.35H387c0-1.11-1.8-1.35-5.61-1.35-3.66,0-4.41.18-4.41,1s.75.78,5.31,1c8.28.33,13.41.9,13.41,6.39,0,5.79-4.8,7.26-13.41,7.26s-13.41-1.47-13.41-7.71Z" transform="translate(-235.59 -394.57)"></path><path d="M413.46,670.31h-8.94l-1.44,3.78H394.5l8.7-21h11.58l8.7,21H414.9Zm-2-5.4L409,658.49l-2.43,6.42Z" transform="translate(-235.59 -394.57)"></path><path d="M451.14,653.09v21h-10.2l-9.06-12.39v12.39h-7.8v-21h10.2l9.06,12.39V653.09Z" transform="translate(-235.59 -394.57)"></path><path d="M477.54,663.56c0,7.29-4,10.83-12.6,10.83s-12.6-3.51-12.6-10.83h7.8c0,2.25.81,4.23,4.8,4.23s4.8-2,4.8-4.23v-3.87h-6.81v-6.6h14.61Z" transform="translate(-235.59 -394.57)"></path><path d="M494.7,670.31h-8.94l-1.44,3.78h-8.58l8.7-21H496l8.7,21h-8.58Zm-2-5.4-2.43-6.42-2.43,6.42Z" transform="translate(-235.59 -394.57)"></path><path d="M497.82,653.09h9l5.58,7.8,5.58-7.8h9l-10.68,14.1v6.9h-7.8v-6.9Z" transform="translate(-235.59 -394.57)"></path><path d="M572,674.09h-7.8v-10l-5.73,10h-5.1l-5.73-10v10h-7.8v-21h9.6l6.48,12,6.48-12H572Z" transform="translate(-235.59 -394.57)"></path><path d="M591.6,670.31h-8.94l-1.44,3.78h-8.58l8.7-21h11.58l8.7,21H593Zm-2-5.4-2.43-6.42-2.43,6.42Z" transform="translate(-235.59 -394.57)"></path><path d="M623.82,667.49v6.6h-21.6v-21H610v14.4Z" transform="translate(-235.59 -394.57)"></path><path d="M646.32,667.49v6.6h-21.6v-21h7.8v14.4Z" transform="translate(-235.59 -394.57)"></path><path d="M665.88,670.31h-8.94l-1.44,3.78h-8.58l8.7-21H667.2l8.7,21h-8.58Zm-2-5.4-2.43-6.42L659,664.91Z" transform="translate(-235.59 -394.57)"></path><path d="M701.94,663.59c0,7.14-4.77,10.5-9.84,10.5H676.5v-21h15.6C697.17,653.09,701.94,656.45,701.94,663.59Zm-7.8,0c0-3.9-2.76-3.9-4.44-3.9h-5.4v7.8h5.4C691.38,667.49,694.14,667.49,694.14,663.59Z" transform="translate(-235.59 -394.57)"></path><path d="M710.64,674.09h-7.8v-21h7.8Z" transform="translate(-235.59 -394.57)"></path></svg><style>@media (prefers-color-scheme: light) { :root { filter: none; } }
@media (prefers-color-scheme: dark) { :root { filter: none; } }
</style></svg>